<?xml version="1.0" encoding="UTF-8" standalone="no"?><!DOCTYPE svg PUBLIC "-//W3C//DTD SVG 1.1//EN" "http://www.w3.org/Graphics/SVG/1.1/DTD/svg11.dtd"><svg width="100%" height="100%" viewBox="0 0 85934 36650" version="1.1" xmlns="http://www.w3.org/2000/svg" xmlns:xlink="http://www.w3.org/1999/xlink" xml:space="preserve" xmlns:serif="http://www.serif.com/" style="fill-rule:evenodd;clip-rule:evenodd;stroke-linejoin:round;stroke-miterlimit:2;"><g><g id="Layer-1" serif:id="Layer 1"><rect x="1240.138" y="8883.471" width="19408.925" height="2245.521" style="fill:#7065ef;"/><path d="M3726.475,0l2325.817,8341.146l9784.654,0l2325.883,-8341.146l-14436.354,0Z" style="fill:#7065ef;fill-rule:nonzero;"/><path d="M10725.712,21881.25l0,14766.492c-903.717,-3976.633 -2784.221,-6460.071 -4722.517,-8009.046c696.179,-1767.571 1027.779,-4372.692 792.171,-8088.679c-1251.946,3631.442 -2716.717,5379.983 -4153.438,6184.6c-1528.142,-572.05 -2641.929,-645.696 -2641.929,-645.696l4942.483,-14309.392l2755,0l3000.138,6881.513c-747.396,122.967 -1318.717,795.937 -1318.717,1607.846c0,821.683 585.729,1501.596 1346.787,1612.346" style="fill:#7065ef;fill-rule:nonzero;"/><path d="M21889.254,26088.925c0,0 -1113.854,73.646 -2641.996,645.696c-1436.7,-804.617 -2901.475,-2553.158 -4153.35,-6184.6c-235.608,3716.008 95.921,6321.112 792.1,8088.679c-1938.229,1548.975 -3818.783,4032.413 -4722.429,8009.046l0,-14766.492c760.987,-110.746 1346.721,-790.658 1346.721,-1612.346c0,-811.492 -571.321,-1484.879 -1318.279,-1607.846l3000.071,-6881.442l2754.638,0l4942.571,14309.325l-0.033,-0.017l-0.013,-0.004Z" style="fill:#7065ef;fill-rule:nonzero;"/><path d="M10473.317,11779.567l942.571,0l-235.608,545.867l-235.675,545.8l-235.608,-545.8l-235.675,-545.867l-0.004,0Z" style="fill:#7065ef;fill-rule:nonzero;"/><path d="M11723.613,16128.404l-389.896,902.05l-389.183,901.337l-389.183,-901.337l-389.896,-902.05l389.896,-1678.246l389.183,-1677.517l389.183,1677.517l389.896,1678.246Z" style="fill:#7065ef;fill-rule:nonzero;"/></g><g><g><path d="M32049.153,32292.996l0,-7868.151l3738.59,0c928.54,0 1734.905,168.606 2431.304,494.572c696.407,325.967 1246.199,786.814 1637.162,1371.304c390.963,584.49 586.448,1281.386 586.448,2068.2c0,786.814 -195.485,1483.71 -586.448,2068.2c-390.963,584.49 -940.756,1045.337 -1637.162,1371.304c-696.407,325.967 -1514.988,494.572 -2431.304,494.572l-3738.59,0Zm1588.291,-1236.431l2076.996,0c635.319,0 1197.328,-112.399 1661.594,-337.204c464.266,-224.805 830.797,-539.527 1087.37,-944.175c256.572,-404.647 390.963,-876.739 390.963,-1416.266c0,-550.772 -134.39,-1022.855 -390.963,-1427.503c-256.572,-404.647 -623.096,-719.37 -1087.37,-932.938c-464.266,-224.805 -1026.282,-337.204 -1661.594,-337.204l-2076.996,0l0,5395.297l0,-0.008Z" style="fill:#7065ef;fill-rule:nonzero;"/></g><g><path d="M42140.907,32292.988l0,-7868.144l6243.205,0l0,1225.179l-4654.914,0l0,5417.778l4825.96,0l0,1225.179l-6414.251,0l-0,0.008Zm1453.901,-3394.541l0,-1191.461l4263.951,0l0,1191.461l-4263.951,0Z" style="fill:#7065ef;fill-rule:nonzero;"/></g><g><path d="M52977.939,32405.394c-671.967,0 -1307.287,-89.925 -1918.167,-258.523c-610.88,-179.842 -1099.585,-404.647 -1453.901,-685.652l562.009,-1135.262c342.092,247.286 769.71,460.847 1270.631,618.208c500.921,168.606 1026.282,247.286 1551.636,247.286c452.05,0 806.365,-44.963 1087.37,-134.88c281.004,-89.925 476.49,-213.561 610.88,-370.929c134.39,-157.361 195.485,-325.967 195.485,-528.291c0,-236.042 -97.743,-427.129 -281.004,-573.253c-183.262,-146.124 -427.618,-258.523 -720.838,-348.448c-293.22,-89.925 -623.096,-168.606 -989.627,-247.286c-366.531,-78.681 -720.838,-157.361 -1087.37,-258.523c-366.531,-101.162 -696.407,-236.042 -989.627,-393.411c-293.22,-157.361 -537.577,-382.166 -720.838,-640.689c-183.262,-269.768 -281.004,-606.971 -281.004,-1034.1c0,-427.129 122.174,-820.532 366.531,-1180.224c244.349,-359.685 623.096,-640.689 1136.241,-854.257c513.137,-213.561 1148.457,-325.967 1930.382,-325.967c513.137,0 1026.282,56.199 1527.204,179.842c500.921,123.643 940.756,292.249 1319.503,517.046l-500.921,1135.262c-378.747,-213.561 -769.71,-370.929 -1185.112,-472.091c-403.179,-101.162 -794.142,-146.124 -1185.112,-146.124c-427.618,0 -781.926,44.963 -1062.93,146.124c-281.004,101.162 -476.49,224.805 -598.664,382.166c-122.174,157.361 -183.262,337.204 -183.262,539.527c0,236.042 97.743,427.129 281.004,573.253c183.262,146.124 427.618,258.523 720.838,348.448c293.22,89.925 635.319,168.606 989.627,247.286c366.531,78.681 720.838,168.606 1087.37,258.523c366.531,101.162 696.407,224.805 989.627,382.166c293.22,157.361 537.577,370.929 720.838,640.689c183.262,269.768 281.004,606.971 281.004,1022.855c0,415.884 -122.174,809.295 -378.747,1168.98c-256.572,359.685 -635.319,640.689 -1148.457,854.257c-513.137,213.561 -1160.673,325.967 -1942.598,325.967l-0,0.023Z" style="fill:#7065ef;fill-rule:nonzero;"/></g><g><path d="M57864.986,32292.988l0,-6002.268l1527.204,0l0,6002.268l-1527.204,0Zm769.71,-6991.405c-281.004,0 -525.361,-78.681 -708.623,-247.286c-183.262,-157.361 -281.004,-359.685 -281.004,-595.734c0,-236.042 97.743,-438.366 281.004,-595.734c183.262,-157.361 415.402,-247.286 708.623,-247.286c281.004,0 525.361,78.681 708.623,236.042c183.262,157.361 281.004,348.448 281.004,584.49c0,247.286 -85.527,449.61 -268.788,618.208c-183.262,168.606 -415.402,247.286 -708.623,247.286l-12.216,0l-0,0.015Z" style="fill:#7065ef;fill-rule:nonzero;"/></g><g><path d="M65537.652,32405.394c-659.751,0 -1270.631,-101.162 -1832.64,-303.486c-562.009,-202.324 -1050.714,-483.328 -1466.116,-843.013c-415.402,-359.685 -733.054,-786.814 -965.195,-1281.386c-232.133,-494.572 -342.092,-1034.1 -342.092,-1618.59c0,-584.49 109.959,-1124.017 342.092,-1618.59c232.133,-494.572 549.793,-921.694 965.195,-1281.386c415.402,-359.685 904.1,-640.689 1466.116,-843.013c562.009,-202.324 1185.112,-292.249 1857.079,-292.249c720.838,0 1368.374,112.399 1954.822,325.967c586.448,213.561 1075.154,539.527 1478.332,955.419l-1001.843,899.22c-329.876,-314.722 -696.407,-539.527 -1075.154,-685.652c-390.963,-146.124 -818.581,-224.805 -1270.631,-224.805c-452.05,0 -867.452,67.444 -1246.199,202.324c-378.747,134.88 -708.623,325.967 -989.627,573.253c-281.004,247.286 -488.705,539.527 -647.535,876.739c-146.614,337.204 -232.133,708.133 -232.133,1112.78c0,393.411 73.303,764.332 232.133,1101.544c146.614,337.204 366.531,629.452 647.535,887.975c281.004,247.286 610.88,438.366 977.411,584.49c378.747,134.88 794.142,202.324 1246.199,202.324c427.618,0 830.797,-67.444 1233.983,-191.087c390.963,-123.643 769.71,-337.204 1124.025,-629.452l904.1,1090.299c-439.834,325.967 -965.195,573.253 -1551.636,741.851c-586.448,168.606 -1185.112,258.523 -1795.992,258.523l-12.231,0Zm3347.628,-1000.382l-1490.548,-191.087l0,-2944.931l1490.548,0l0,3136.018Z" style="fill:#7065ef;fill-rule:nonzero;"/></g><g><path d="M70974.492,32292.988l0,-7868.144l1307.287,0l5363.537,6058.475l-647.535,0l0,-6058.475l1576.075,0l0,7868.144l-1307.287,0l-5363.537,-6058.475l647.535,0l0,6058.475l-1576.075,0Z" style="fill:#7065ef;fill-rule:nonzero;"/></g></g><g transform="matrix(16666.666667,0,0,16666.666667,24689.675,20807.95)"><path d="M0.078,-0l0,-0.66l0.192,0l0.196,0.519l0.005,0l0.193,-0.519l0.183,0l0,0.66l-0.12,-0l0.008,-0.532l-0.01,0l-0.209,0.532l-0.111,-0l-0.206,-0.532l-0.01,0l0.008,0.532l-0.119,-0Z" style="fill:#7065ef;fill-rule:nonzero;"/></g><g transform="matrix(16666.666667,0,0,16666.666667,40089.675,20807.95)"><path d="M0.071,-0l0,-0.262l-0,-0.26l0.107,0l-0.003,0.179l0.019,0c0.006,-0.043 0.015,-0.078 0.027,-0.106c0.013,-0.028 0.031,-0.05 0.053,-0.064c0.023,-0.014 0.051,-0.022 0.084,-0.022c0.006,0 0.013,0 0.021,0.001c0.008,0.001 0.016,0.002 0.026,0.005l-0.005,0.133c-0.01,-0.004 -0.021,-0.007 -0.032,-0.009c-0.011,-0.002 -0.021,-0.003 -0.031,-0.003c-0.026,0 -0.049,0.007 -0.068,0.02c-0.019,0.013 -0.034,0.032 -0.046,0.057c-0.012,0.024 -0.021,0.053 -0.026,0.087l0,0.244l-0.127,-0Z" style="fill:#7065ef;fill-rule:nonzero;"/></g><g transform="matrix(16666.666667,0,0,16666.666667,47123.008333,20807.95)"></g><g transform="matrix(16666.666667,0,0,16666.666667,51089.675,20807.95)"><path d="M0.078,-0l0,-0.66l0.126,0l0,0.66l-0.126,-0Zm0.029,-0l0,-0.108l0.386,0l0,0.108l-0.386,-0Z" style="fill:#7065ef;fill-rule:nonzero;"/></g><g transform="matrix(16666.666667,0,0,16666.666667,59623.008333,20807.95)"><path d="M0.192,0.013c-0.029,0 -0.055,-0.006 -0.077,-0.017c-0.023,-0.011 -0.04,-0.028 -0.053,-0.05c-0.013,-0.022 -0.019,-0.049 -0.019,-0.082c-0,-0.027 0.005,-0.051 0.015,-0.07c0.01,-0.019 0.026,-0.035 0.046,-0.048c0.021,-0.012 0.046,-0.023 0.077,-0.031c0.031,-0.008 0.067,-0.015 0.108,-0.021c0.022,-0.003 0.041,-0.007 0.055,-0.01c0.014,-0.003 0.025,-0.008 0.032,-0.015c0.007,-0.007 0.01,-0.018 0.01,-0.032c0,-0.021 -0.007,-0.039 -0.022,-0.053c-0.015,-0.015 -0.038,-0.022 -0.07,-0.022c-0.019,0 -0.037,0.003 -0.055,0.01c-0.018,0.007 -0.033,0.017 -0.046,0.031c-0.013,0.014 -0.022,0.033 -0.026,0.056l-0.113,-0.035c0.007,-0.026 0.018,-0.049 0.032,-0.069c0.014,-0.02 0.031,-0.037 0.052,-0.05c0.021,-0.014 0.044,-0.024 0.071,-0.031c0.027,-0.007 0.056,-0.01 0.088,-0.01c0.049,0 0.089,0.008 0.12,0.024c0.031,0.016 0.055,0.04 0.07,0.073c0.015,0.033 0.023,0.075 0.023,0.127l0,0.098c0,0.022 0,0.046 0.001,0.07c0.001,0.024 0.002,0.049 0.004,0.073c0.002,0.024 0.004,0.048 0.006,0.071l-0.113,-0c-0.002,-0.018 -0.005,-0.038 -0.007,-0.06c-0.002,-0.021 -0.004,-0.043 -0.005,-0.065l-0.016,0c-0.009,0.025 -0.023,0.048 -0.04,0.069c-0.017,0.021 -0.038,0.038 -0.063,0.05c-0.025,0.012 -0.054,0.019 -0.087,0.019Zm0.05,-0.094c0.013,0 0.027,-0.002 0.04,-0.007c0.014,-0.005 0.027,-0.011 0.04,-0.021c0.013,-0.009 0.026,-0.021 0.037,-0.035c0.011,-0.014 0.021,-0.03 0.029,-0.049l-0.001,-0.089l0.024,0.005c-0.012,0.009 -0.026,0.017 -0.042,0.022c-0.016,0.005 -0.034,0.009 -0.052,0.012c-0.018,0.003 -0.037,0.006 -0.055,0.01c-0.018,0.003 -0.035,0.008 -0.049,0.014c-0.015,0.006 -0.026,0.014 -0.035,0.024c-0.009,0.01 -0.013,0.025 -0.013,0.043c0,0.023 0.007,0.04 0.022,0.053c0.014,0.013 0.033,0.019 0.056,0.019Z" style="fill:#7065ef;fill-rule:nonzero;"/></g><g transform="matrix(16666.666667,0,0,16666.666667,69223.008333,20807.95)"><path d="M0.071,-0l0,-0.262l-0,-0.26l0.107,0l-0.003,0.179l0.019,0c0.006,-0.043 0.015,-0.078 0.027,-0.106c0.013,-0.028 0.031,-0.05 0.053,-0.064c0.023,-0.014 0.051,-0.022 0.084,-0.022c0.006,0 0.013,0 0.021,0.001c0.008,0.001 0.016,0.002 0.026,0.005l-0.005,0.133c-0.01,-0.004 -0.021,-0.007 -0.032,-0.009c-0.011,-0.002 -0.021,-0.003 -0.031,-0.003c-0.026,0 -0.049,0.007 -0.068,0.02c-0.019,0.013 -0.034,0.032 -0.046,0.057c-0.012,0.024 -0.021,0.053 -0.026,0.087l0,0.244l-0.127,-0Z" style="fill:#7065ef;fill-rule:nonzero;"/></g><g transform="matrix(16666.666667,0,0,16666.666667,76389.675,20807.95)"><path d="M0.035,-0l0,-0.108l0.278,-0.298l0,-0.014l-0.274,0l0,-0.103l0.436,0l0,0.106l-0.282,0.3l0,0.013l0.284,0l0,0.104l-0.443,-0Z" style="fill:#7065ef;fill-rule:nonzero;"/></g><g transform="matrix(16666.666667,0,0,16666.666667,84923.008333,20807.95)"></g></g></svg>